<svg id="Layer_1" data-name="Layer 1" xmlns="http://www.w3.org/2000/svg" viewBox="0 0 200 24.46">
    <defs>
        <style>.cls-1{fill:#fff;}.cls-2{fill:#fff;}</style>
    </defs>
    <title>utk-onesearch</title>
    <path class="cls-1"
          d="M47.63.81V14.89L36.92.81H32.18a11.51,11.51,0,0,1-1.68,1.9c-.62.44-1.28.81-1.92,1.22a23.15,23.15,0,0,1-3.26,1.41v4.4A18.81,18.81,0,0,0,31,6.38V19.45H25.71v4.14H41.65V19.45H37.24V9.14L48.32,23.68H52.6V.81Z"/>
    <path class="cls-1"
          d="M0,12.7v-.06A11.82,11.82,0,0,1,12.19.81,11.72,11.72,0,0,1,24.31,12.57v.07A11.82,11.82,0,0,1,12.12,24.46,11.71,11.71,0,0,1,0,12.7Zm19.05,0v-.06a7,7,0,0,0-6.93-7.19,6.84,6.84,0,0,0-6.86,7.12v.07a6.94,6.94,0,0,0,6.93,7.18A6.84,6.84,0,0,0,19.05,12.7Z"/>
    <path class="cls-1" d="M56.7.81H74V5.28H61.7V9.92H72.48V14.4H61.7v4.8H74.12v4.48H56.7Z"/>
    <path class="cls-2"
          d="M76.86,20.35l1.63-1.93a11.13,11.13,0,0,0,8,3.3c3.14,0,5.21-1.66,5.21-4v-.06c0-2.17-1.17-3.41-6.08-4.44-5.37-1.17-7.84-2.91-7.84-6.74V6.44C77.79,2.77,81,.07,85.47.07a12.16,12.16,0,0,1,8.21,2.87L92.14,5A10.25,10.25,0,0,0,85.4,2.44c-3,0-5,1.66-5,3.77v.06c0,2.2,1.2,3.44,6.34,4.54s7.61,3,7.61,6.61v.07c0,4-3.34,6.6-8,6.6A13.63,13.63,0,0,1,76.86,20.35Z"/>
    <path class="cls-2" d="M96,.4h16.88V2.8H98.58v8h12.75v2.4H98.58v8.18H113v2.4H96Z"/>
    <path class="cls-2"
          d="M124.88.23h2.47L138,23.76h-2.84l-2.73-6.17H119.7l-2.76,6.17h-2.71Zm6.5,15L126.08,3.3l-5.34,11.88Z"/>
    <path class="cls-2"
          d="M139.1.4h10a9.19,9.19,0,0,1,6.64,2.34,6.42,6.42,0,0,1,1.81,4.6v.07c0,3.87-2.67,6.14-6.35,6.8l7.18,9.55h-3.24l-6.77-9.08h-6.68v9.08H139.1Zm9.81,11.91c3.5,0,6-1.8,6-4.8V7.44c0-2.87-2.21-4.6-6-4.6h-7.21v9.47Z"/>
    <path class="cls-2"
          d="M158.69,12.15v-.07A11.77,11.77,0,0,1,170.5,0a12.15,12.15,0,0,1,9.11,3.7l-1.8,1.94a10.14,10.14,0,0,0-7.34-3.2c-5.17,0-9,4.2-9,9.57v.07c0,5.41,3.9,9.64,9,9.64,3.2,0,5.31-1.23,7.54-3.37l1.74,1.71a12.21,12.21,0,0,1-9.35,4.1A11.65,11.65,0,0,1,158.69,12.15Z"/>
    <path class="cls-2" d="M181.25.4h2.63V10.78h13.48V.4H200V23.76h-2.64V13.25H183.88V23.76h-2.63Z"/>
</svg>